<svg xmlns="http://www.w3.org/2000/svg" xmlns:xlink="http://www.w3.org/1999/xlink" version="1.1" x="0px" y="0px"
    viewBox="0 0 100 100" style="enable-background:new 0 0 100 100;" xml:space="preserve">
    <g>
        <rect x="35.8" y="83.4" width="24.1" height="9.4" />
        <path
            d="M50.5,53.4L50.5,53.4l-2.7-6.6l-2.5,6.1c-0.1,0.1-0.1,0.3-0.2,0.4l-0.1,0.1l0,0C45,53.7,45,53.9,45,54.1   c0,1.5,1.3,2.8,2.8,2.8c1.5,0,2.8-1.3,2.8-2.8C50.6,53.9,50.5,53.6,50.5,53.4z" />
        <path
            d="M71.3,71.9h-5c-0.3,0-0.6,0-0.9,0.1l0-4.6h3.9c0.8,0,1.5-0.7,1.5-1.5s-0.7-1.5-1.5-1.5h-3.9v0l-1.7,0h-1.3v-29   c0-1.8-1.2-3.2-2.7-3.6V4.3h6.5c0.8,0,1.4-0.6,1.4-1.4S67,1.5,66.2,1.5H29.3c-0.8,0-1.4,0.6-1.4,1.4s0.6,1.4,1.4,1.4h6.6v27.4   c-1.5,0.4-2.7,1.9-2.7,3.6v29h-6.9c-0.8,0-1.5,0.7-1.5,1.5s0.7,1.5,1.5,1.5h3.9v28.1c0,1.6,1.3,2.8,2.8,2.8h29.6   c1.6,0,2.8-1.3,2.8-2.8l0-6.5c0.3,0.1,0.6,0.1,0.9,0.1h5c2.2,0,3.9-1.8,3.9-3.9v-9.4C75.2,73.7,73.4,71.9,71.3,71.9z M57.1,4.3   v27.3H38.4V4.3H57.1z M35.8,35.4c0-0.6,0.4-1.1,0.9-1.1h22.1c0.5,0,0.9,0.5,0.9,1.1v29H35.8V35.4z M33.1,95.3V67.4l29.3,0l0,8.4   c0,0,0,0,0,0v4.8l0,14.7H33.1z M72.2,85.2c0,0.5-0.4,0.9-0.9,0.9h-5c-0.5,0-0.9-0.4-0.9-0.9V81l0-5.2c0-0.5,0.4-0.9,0.9-0.9h5   c0.5,0,0.9,0.4,0.9,0.9V85.2z" />
    </g>
</svg>