<svg xmlns="http://www.w3.org/2000/svg" xmlns:xlink="http://www.w3.org/1999/xlink" xml:space="preserve" version="1.1"
  style="shape-rendering:geometricPrecision;text-rendering:geometricPrecision;image-rendering:optimizeQuality;"
  viewBox="0 0 113 128" x="0px" y="0px" fill-rule="evenodd" clip-rule="evenodd">
  <g>
    <path class="fil0"
      d="M29 31c16,0 29,19 29,42 0,23 -13,42 -29,42 -16,0 -29,-19 -29,-42 0,-23 13,-42 29,-42zm1 80c-12,-23 15,-44 0,-76 6,46 -18,51 0,76z" />
    <path class="fil0"
      d="M60 57c31,-5 69,40 48,63 -16,17 -45,2 -57,-13 7,-9 11,-21 11,-31 22,21 17,38 44,41 -21,-5 -22,-31 -44,-46 0,-5 -1,-10 -2,-14z" />
    <path class="fil0"
      d="M96 4c9,7 8,24 -3,36 -10,13 -26,17 -35,10 -9,-7 -8,-24 3,-36 10,-13 26,-17 35,-10zm-36 45c4,-18 28,-17 35,-43 -17,28 -33,20 -35,43z" />
  </g>
</svg>