<svg xmlns="http://www.w3.org/2000/svg" xmlns:xlink="http://www.w3.org/1999/xlink" version="1.1" x="0px" y="0px"
  viewBox="0 0 100 100">
  <g>
    <path
      d="M61.7,93.2H38.4V59.8h23.3V93.2z M52.6,74.4L52.6,74.4L50,68l-2.4,5.9c-0.1,0.1-0.1,0.3-0.2,0.4l-0.1,0.1l0,0   c-0.1,0.2-0.1,0.4-0.1,0.7c0,1.5,1.2,2.7,2.7,2.7c1.5,0,2.7-1.2,2.7-2.7C52.7,74.8,52.7,74.6,52.6,74.4z" />
    <path
      d="M75.1,46H67l0-3.2h0v-6c0-1.5-1.2-2.7-2.7-2.7H51.5V8.6c1.4-0.5,2.4-1.9,2.4-3.5c0-2.1-1.7-3.7-3.7-3.7   c-2.1,0-3.7,1.7-3.7,3.7c0,1.5,0.9,2.8,2.1,3.4v25.6H35.7c-1.5,0-2.7,1.2-2.7,2.7l0,3.1l-3,0l3,11.1l0,44.8c0,1.5,1.2,2.7,2.7,2.7   h28.6c1.5,0,2.7-1.2,2.7-2.7l0-11.6h8.1c2.1,0,3.8-1.7,3.8-3.8V49.7C78.9,47.6,77.2,46,75.1,46z M64.1,95.7H35.8l0-44.8l0-0.2   l-2.1-7.9l14.9,0V52H38.4v2.9h23.2V52H51.5v-9.2l12.6,0L64.1,95.7z M64.1,39.9l-28.3,0l0-2.9h28.3V39.9z M76,80.4   c0,0.5-0.4,0.9-0.9,0.9h-8V48.8h8c0.5,0,0.9,0.4,0.9,0.9V80.4z" />
  </g>
</svg>